<mxfile host="app.diagrams.net" modified="2024-04-25T15:02:36.104Z" agent="Mozilla/5.0 (Windows NT 10.0; Win64; x64) AppleWebKit/537.36 (KHTML, like Gecko) Chrome/124.0.0.0 Safari/537.36 Edg/124.0.0.0" etag="6LGXbRW6P_fG6ehgXIc4" version="24.3.0" type="github">
  <diagram id="C5RBs43oDa-KdzZeNtuy" name="Page-1">
    <mxGraphModel dx="2062" dy="719" grid="1" gridSize="10" guides="1" tooltips="1" connect="1" arrows="1" fold="1" page="1" pageScale="1" pageWidth="827" pageHeight="1169" math="0" shadow="0">
      <root>
        <mxCell id="WIyWlLk6GJQsqaUBKTNV-0" />
        <mxCell id="WIyWlLk6GJQsqaUBKTNV-1" parent="WIyWlLk6GJQsqaUBKTNV-0" />
        <mxCell id="weqHktZ0UJ3M6-EYkoGj-23" value="" style="edgeStyle=orthogonalEdgeStyle;rounded=0;orthogonalLoop=1;jettySize=auto;html=1;" edge="1" parent="WIyWlLk6GJQsqaUBKTNV-1" source="weqHktZ0UJ3M6-EYkoGj-0" target="weqHktZ0UJ3M6-EYkoGj-13">
          <mxGeometry relative="1" as="geometry" />
        </mxCell>
        <mxCell id="weqHktZ0UJ3M6-EYkoGj-0" value="开始加载&lt;div&gt;Service接口&lt;/div&gt;" style="strokeWidth=2;html=1;shape=mxgraph.flowchart.terminator;whiteSpace=wrap;" vertex="1" parent="WIyWlLk6GJQsqaUBKTNV-1">
          <mxGeometry x="120" y="40" width="100" height="60" as="geometry" />
        </mxCell>
        <mxCell id="weqHktZ0UJ3M6-EYkoGj-16" value="" style="edgeStyle=orthogonalEdgeStyle;rounded=0;orthogonalLoop=1;jettySize=auto;html=1;" edge="1" parent="WIyWlLk6GJQsqaUBKTNV-1" source="weqHktZ0UJ3M6-EYkoGj-13" target="weqHktZ0UJ3M6-EYkoGj-15">
          <mxGeometry relative="1" as="geometry" />
        </mxCell>
        <mxCell id="weqHktZ0UJ3M6-EYkoGj-13" value="使用自定义注解&lt;div&gt;`本地实现Bean`&lt;/div&gt;&lt;div&gt;元注解&lt;/div&gt;&lt;div&gt;@Conditional&lt;/div&gt;" style="whiteSpace=wrap;html=1;rounded=1;strokeWidth=2;" vertex="1" parent="WIyWlLk6GJQsqaUBKTNV-1">
          <mxGeometry x="110" y="160" width="120" height="60" as="geometry" />
        </mxCell>
        <mxCell id="weqHktZ0UJ3M6-EYkoGj-18" value="" style="edgeStyle=orthogonalEdgeStyle;rounded=0;orthogonalLoop=1;jettySize=auto;html=1;" edge="1" parent="WIyWlLk6GJQsqaUBKTNV-1" source="weqHktZ0UJ3M6-EYkoGj-15" target="weqHktZ0UJ3M6-EYkoGj-17">
          <mxGeometry relative="1" as="geometry" />
        </mxCell>
        <mxCell id="weqHktZ0UJ3M6-EYkoGj-15" value="自定义Condition检查&lt;div&gt;通过反射获取注解参数&lt;/div&gt;" style="whiteSpace=wrap;html=1;rounded=1;strokeWidth=2;" vertex="1" parent="WIyWlLk6GJQsqaUBKTNV-1">
          <mxGeometry x="110" y="280" width="120" height="60" as="geometry" />
        </mxCell>
        <mxCell id="weqHktZ0UJ3M6-EYkoGj-20" value="" style="edgeStyle=orthogonalEdgeStyle;rounded=0;orthogonalLoop=1;jettySize=auto;html=1;" edge="1" parent="WIyWlLk6GJQsqaUBKTNV-1" source="weqHktZ0UJ3M6-EYkoGj-17" target="weqHktZ0UJ3M6-EYkoGj-19">
          <mxGeometry relative="1" as="geometry" />
        </mxCell>
        <mxCell id="weqHktZ0UJ3M6-EYkoGj-17" value="获取Spring 上下文&lt;div&gt;应用名称&lt;/div&gt;" style="whiteSpace=wrap;html=1;rounded=1;strokeWidth=2;" vertex="1" parent="WIyWlLk6GJQsqaUBKTNV-1">
          <mxGeometry x="110" y="400" width="120" height="60" as="geometry" />
        </mxCell>
        <mxCell id="weqHktZ0UJ3M6-EYkoGj-22" value="Y" style="edgeStyle=orthogonalEdgeStyle;rounded=0;orthogonalLoop=1;jettySize=auto;html=1;" edge="1" parent="WIyWlLk6GJQsqaUBKTNV-1" source="weqHktZ0UJ3M6-EYkoGj-19" target="weqHktZ0UJ3M6-EYkoGj-21">
          <mxGeometry relative="1" as="geometry" />
        </mxCell>
        <mxCell id="weqHktZ0UJ3M6-EYkoGj-25" value="N" style="edgeStyle=orthogonalEdgeStyle;rounded=0;orthogonalLoop=1;jettySize=auto;html=1;" edge="1" parent="WIyWlLk6GJQsqaUBKTNV-1" source="weqHktZ0UJ3M6-EYkoGj-19" target="weqHktZ0UJ3M6-EYkoGj-24">
          <mxGeometry relative="1" as="geometry" />
        </mxCell>
        <mxCell id="weqHktZ0UJ3M6-EYkoGj-19" value="名称与&lt;div&gt;注解参数&lt;/div&gt;&lt;div&gt;一致?&lt;/div&gt;" style="rhombus;whiteSpace=wrap;html=1;rounded=1;strokeWidth=2;" vertex="1" parent="WIyWlLk6GJQsqaUBKTNV-1">
          <mxGeometry x="130" y="520" width="80" height="80" as="geometry" />
        </mxCell>
        <mxCell id="weqHktZ0UJ3M6-EYkoGj-21" value="加载本地实现的Bean&lt;div&gt;设置优先覆盖默认&lt;/div&gt;" style="whiteSpace=wrap;html=1;rounded=1;strokeWidth=2;" vertex="1" parent="WIyWlLk6GJQsqaUBKTNV-1">
          <mxGeometry x="294" y="630" width="120" height="60" as="geometry" />
        </mxCell>
        <mxCell id="weqHktZ0UJ3M6-EYkoGj-24" value="默认使用远程Bean&lt;div&gt;使用Feign的实现类&lt;/div&gt;" style="whiteSpace=wrap;html=1;rounded=1;strokeWidth=2;" vertex="1" parent="WIyWlLk6GJQsqaUBKTNV-1">
          <mxGeometry x="-60" y="630" width="120" height="60" as="geometry" />
        </mxCell>
        <mxCell id="weqHktZ0UJ3M6-EYkoGj-26" value="完成类加载过程" style="strokeWidth=2;html=1;shape=mxgraph.flowchart.terminator;whiteSpace=wrap;" vertex="1" parent="WIyWlLk6GJQsqaUBKTNV-1">
          <mxGeometry x="120" y="720" width="100" height="60" as="geometry" />
        </mxCell>
        <mxCell id="weqHktZ0UJ3M6-EYkoGj-27" style="edgeStyle=orthogonalEdgeStyle;rounded=0;orthogonalLoop=1;jettySize=auto;html=1;entryX=1;entryY=0.5;entryDx=0;entryDy=0;entryPerimeter=0;" edge="1" parent="WIyWlLk6GJQsqaUBKTNV-1" source="weqHktZ0UJ3M6-EYkoGj-21" target="weqHktZ0UJ3M6-EYkoGj-26">
          <mxGeometry relative="1" as="geometry">
            <Array as="points">
              <mxPoint x="354" y="750" />
            </Array>
          </mxGeometry>
        </mxCell>
        <mxCell id="weqHktZ0UJ3M6-EYkoGj-28" style="edgeStyle=orthogonalEdgeStyle;rounded=0;orthogonalLoop=1;jettySize=auto;html=1;entryX=0;entryY=0.5;entryDx=0;entryDy=0;entryPerimeter=0;" edge="1" parent="WIyWlLk6GJQsqaUBKTNV-1" source="weqHktZ0UJ3M6-EYkoGj-24" target="weqHktZ0UJ3M6-EYkoGj-26">
          <mxGeometry relative="1" as="geometry">
            <Array as="points">
              <mxPoint y="750" />
            </Array>
          </mxGeometry>
        </mxCell>
      </root>
    </mxGraphModel>
  </diagram>
</mxfile>
